<svg xmlns="http://www.w3.org/2000/svg" xmlns:xlink="http://www.w3.org/1999/xlink" zoomAndPan="magnify" preserveAspectRatio="xMidYMid meet" version="1.0" viewBox="238.2 331.86 287.78 124.81"><path fill="#ffffff" d="M 356.605469 402.449219 L 356.605469 406.933594 C 352.480469 410.800781 348.972656 413.914062 346.089844 416.277344 C 343.203125 418.644531 340.328125 420.773438 337.464844 422.667969 C 334.597656 424.550781 332.222656 425.894531 330.339844 426.699219 C 328.453125 427.5 326.839844 427.902344 325.496094 427.902344 C 322.277344 427.902344 319.644531 426.707031 317.605469 424.324219 C 315.574219 421.941406 314.558594 418.855469 314.558594 415.074219 C 314.558594 410.742188 315.433594 406.449219 317.183594 402.199219 C 318.941406 397.941406 321.449219 393.542969 324.699219 389.011719 C 327.957031 384.472656 332.042969 379.382812 336.949219 373.746094 C 340.59375 369.582031 342.417969 367.238281 342.417969 366.714844 C 342.417969 366.414062 342.308594 366.152344 342.089844 365.933594 C 341.871094 365.714844 341.628906 365.605469 341.371094 365.605469 C 340.546875 365.605469 338.011719 367.429688 333.761719 371.074219 C 329.511719 374.722656 324.050781 380.082031 317.386719 387.152344 C 310.730469 394.226562 303.535156 402.644531 295.808594 412.402344 C 295.371094 412.925781 293.988281 414.695312 291.667969 417.714844 C 289.355469 420.738281 287.71875 422.699219 286.761719 423.605469 C 285.800781 424.511719 284.980469 424.964844 284.292969 424.964844 C 283.074219 424.964844 282.015625 423.738281 281.121094 421.292969 C 280.234375 418.847656 279.792969 416.230469 279.792969 413.449219 C 279.792969 411.761719 280.34375 409.945312 281.449219 407.996094 C 282.5625 406.039062 284.972656 402.535156 288.683594 397.480469 C 292.390625 392.417969 295.457031 388.152344 297.886719 384.683594 C 300.324219 381.207031 302.996094 376.996094 305.902344 372.058594 C 307.941406 368.621094 309.449219 365.886719 310.417969 363.855469 C 311.394531 361.816406 311.886719 360.011719 311.886719 358.449219 C 311.886719 357.105469 311.496094 356.433594 310.714844 356.433594 C 309.066406 356.433594 305.964844 358.636719 301.402344 363.042969 C 296.847656 367.441406 291.21875 373.980469 284.511719 382.667969 C 277.8125 391.347656 270.816406 401.386719 263.527344 412.792969 C 261.140625 416.699219 259.449219 419.332031 258.449219 420.683594 C 257.449219 422.027344 256.339844 422.699219 255.121094 422.699219 C 253.597656 422.699219 252.175781 421.085938 250.855469 417.855469 C 249.53125 414.617188 248.871094 411.996094 248.871094 409.996094 C 248.871094 409.351562 249.128906 408.636719 249.652344 407.855469 C 255.378906 400.222656 260.089844 393.738281 263.777344 388.402344 C 267.464844 383.058594 270.738281 377.992188 273.605469 373.199219 C 276.46875 368.398438 278.550781 364.445312 279.855469 361.339844 C 281.15625 358.238281 281.808594 355.800781 281.808594 354.027344 C 281.808594 352.152344 280.964844 351.214844 279.277344 351.214844 C 277.890625 351.214844 275.527344 352.105469 272.183594 353.886719 C 268.839844 355.667969 264.613281 358.101562 259.511719 361.183594 C 254.417969 364.269531 250.328125 366.621094 247.246094 368.246094 C 244.160156 369.871094 241.867188 370.683594 240.355469 370.683594 C 238.917969 370.683594 238.199219 369.882812 238.199219 368.277344 C 238.199219 367.363281 238.507812 365.269531 239.121094 361.996094 C 239.726562 358.714844 240.351562 356.402344 240.996094 355.058594 C 241.914062 353.332031 244.246094 351.035156 247.996094 348.167969 C 251.746094 345.304688 253.816406 343.871094 254.214844 343.871094 C 254.558594 343.871094 254.730469 344.023438 254.730469 344.324219 C 254.730469 344.492188 254.558594 344.753906 254.214844 345.105469 C 252.433594 346.535156 251.105469 347.707031 250.230469 348.621094 C 249.363281 349.527344 248.828125 350.523438 248.621094 351.605469 C 256.558594 346.835938 263.660156 343.207031 269.933594 340.714844 C 276.203125 338.214844 280.550781 336.964844 282.980469 336.964844 C 284.199219 336.964844 285.347656 337.777344 286.433594 339.402344 C 287.515625 341.027344 288.4375 342.917969 289.199219 345.074219 C 289.957031 347.222656 290.339844 348.597656 290.339844 349.199219 C 290.339844 351.417969 289.769531 354.039062 288.636719 357.058594 C 287.511719 360.070312 285.984375 363.570312 284.058594 367.558594 C 282.128906 371.550781 279.734375 376.539062 276.871094 382.527344 C 279.121094 379.621094 281.265625 376.933594 283.308594 374.464844 C 285.347656 371.988281 287.375 369.574219 289.386719 367.230469 C 291.40625 364.886719 293.457031 362.523438 295.542969 360.136719 C 298.363281 356.886719 301.53125 353.777344 305.042969 350.808594 C 308.5625 347.832031 311.847656 345.398438 314.902344 343.511719 C 317.964844 341.617188 320.042969 340.667969 321.136719 340.667969 C 322.644531 340.667969 324 341.507812 325.199219 343.183594 C 326.394531 344.851562 326.996094 346.644531 326.996094 348.558594 C 326.996094 349.808594 326.167969 352.214844 324.511719 355.777344 C 322.863281 359.339844 320.457031 363.898438 317.292969 369.449219 C 314.125 375.003906 309.9375 382.164062 304.730469 390.933594 C 309.675781 385.683594 314.816406 380.285156 320.152344 374.730469 C 325.484375 369.167969 329.453125 365.105469 332.058594 362.542969 C 334.660156 359.980469 336.832031 358.027344 338.574219 356.683594 C 340.957031 354.863281 343.355469 352.898438 345.761719 350.792969 C 348.175781 348.691406 350.078125 347.035156 351.464844 345.824219 C 352.847656 344.605469 354.082031 343.675781 355.167969 343.027344 C 356.261719 342.371094 357.261719 342.042969 358.167969 342.042969 C 359.292969 342.042969 360.707031 343.347656 362.417969 345.949219 C 364.136719 348.554688 364.996094 350.226562 364.996094 350.964844 C 364.996094 351.871094 364.484375 352.957031 363.464844 354.214844 C 362.453125 355.476562 360.339844 357.820312 357.121094 361.246094 C 351.222656 367.582031 346.105469 373.972656 341.761719 380.417969 C 337.425781 386.855469 334.140625 392.738281 331.902344 398.058594 C 329.660156 403.371094 328.542969 407.570312 328.542969 410.652344 C 328.542969 412.558594 328.902344 413.949219 329.621094 414.824219 C 330.339844 415.691406 331.457031 416.121094 332.980469 416.121094 C 334.363281 416.121094 335.652344 415.863281 336.839844 415.339844 C 338.035156 414.820312 339.359375 414.085938 340.808594 413.136719 C 342.265625 412.179688 343.644531 411.261719 344.949219 410.386719 C 346.769531 409.304688 348.5625 408.148438 350.324219 406.917969 C 352.082031 405.679688 353.449219 404.699219 354.417969 403.980469 C 355.394531 403.261719 356.125 402.753906 356.605469 402.449219 Z M 356.605469 402.449219 " fill-opacity="1" fill-rule="nonzero"/><path fill="#ffffff" d="M 431.527344 402.449219 L 431.527344 405.902344 C 426.578125 410.070312 421.671875 414.054688 416.808594 417.855469 C 411.953125 421.648438 406.050781 425.886719 399.105469 430.574219 C 395.550781 435.425781 392.496094 439.40625 389.933594 442.511719 C 387.371094 445.613281 385.15625 448.1875 383.292969 450.230469 C 381.425781 452.269531 380.472656 453.3125 380.433594 453.355469 C 379.816406 454.09375 378.792969 454.828125 377.355469 455.558594 C 375.925781 456.296875 374.738281 456.667969 373.792969 456.667969 C 372.449219 456.667969 371.328125 456.175781 370.433594 455.199219 C 369.546875 454.230469 369.105469 453.074219 369.105469 451.730469 C 369.105469 448.25 370.925781 444.546875 374.574219 440.621094 C 378.21875 436.691406 383.550781 432.671875 390.574219 428.558594 C 394.050781 423.566406 397.375 418.550781 400.542969 413.496094 C 403.707031 408.433594 406.472656 403.820312 408.839844 399.652344 C 411.203125 395.488281 413.386719 391.386719 415.386719 387.355469 C 412.261719 389.949219 409.15625 392.457031 406.074219 394.871094 C 402.988281 397.277344 399.972656 399.582031 397.027344 401.777344 C 394.078125 403.964844 392.253906 405.320312 391.558594 405.839844 C 390.859375 406.363281 390.25 406.816406 389.730469 407.199219 C 382.175781 413.792969 376.535156 417.089844 372.808594 417.089844 C 369.253906 417.089844 366.261719 415.398438 363.824219 412.011719 C 361.394531 408.628906 360.183594 404.355469 360.183594 399.199219 C 360.183594 395.941406 360.703125 392.542969 361.746094 389.011719 C 362.785156 385.472656 364.378906 381.835938 366.527344 378.105469 C 368.671875 374.378906 371.238281 370.777344 374.230469 367.308594 C 377.230469 363.832031 380.53125 360.636719 384.136719 357.730469 C 389.6875 353.304688 395.910156 349.347656 402.808594 345.855469 C 409.714844 342.355469 416.140625 339.683594 422.089844 337.839844 C 428.035156 335.996094 432.417969 335.074219 435.230469 335.074219 C 436.886719 335.074219 438.199219 335.476562 439.167969 336.277344 C 440.144531 337.082031 440.839844 338.167969 441.246094 339.542969 C 441.660156 340.910156 441.871094 342.351562 441.871094 343.871094 C 441.871094 345.257812 441.4375 346.644531 440.574219 348.027344 C 439.3125 349.894531 437.097656 351.855469 433.933594 353.917969 C 430.765625 355.980469 427.574219 357.804688 424.355469 359.386719 C 421.144531 360.972656 419.308594 361.761719 418.839844 361.761719 C 418.578125 361.761719 418.449219 361.679688 418.449219 361.511719 C 418.449219 361.117188 418.941406 360.488281 419.933594 359.621094 C 420.933594 358.746094 422.042969 357.855469 423.261719 356.949219 C 425.949219 354.910156 427.53125 352.738281 428.011719 350.433594 C 423.800781 351.613281 419.613281 353.152344 415.449219 355.058594 C 411.28125 356.964844 407.15625 359.246094 403.074219 361.902344 C 399 364.550781 394.921875 367.566406 390.839844 370.949219 C 386.246094 374.804688 382.328125 378.832031 379.089844 383.027344 C 375.859375 387.214844 373.40625 391.089844 371.730469 394.652344 C 370.0625 398.207031 369.230469 400.933594 369.230469 402.839844 C 369.230469 404.277344 369.683594 405.527344 370.589844 406.589844 C 371.503906 407.652344 372.746094 408.183594 374.308594 408.183594 C 376.128906 408.183594 378.386719 407.382812 381.074219 405.777344 C 383.980469 404.039062 387.175781 401.816406 390.667969 399.105469 C 394.167969 396.386719 397.390625 393.816406 400.339844 391.386719 C 403.296875 388.960938 406.488281 386.289062 409.917969 383.371094 C 413.082031 380.726562 415.542969 378.589844 417.292969 376.964844 C 419.050781 375.339844 420.371094 373.917969 421.246094 372.699219 C 423.066406 370.191406 424.875 368.742188 426.667969 368.355469 C 428.46875 367.960938 430.011719 368.316406 431.292969 369.417969 C 432.574219 370.523438 433.214844 371.878906 433.214844 373.480469 C 433.214844 374.003906 432.269531 376.035156 430.386719 379.574219 C 428.5 383.105469 425.613281 388.226562 421.730469 394.933594 C 417.84375 401.644531 413.058594 409.550781 407.371094 418.652344 C 412.410156 415.964844 420.464844 410.566406 431.527344 402.449219 Z M 431.527344 402.449219 " fill-opacity="1" fill-rule="nonzero"/><path fill="#ffffff" d="M 498.566406 404.402344 C 497.480469 402.402344 495.855469 400.601562 493.691406 398.996094 C 491.523438 397.394531 489.082031 396.105469 486.363281 395.136719 C 483.652344 394.160156 480.824219 393.429688 477.878906 392.949219 C 469.105469 391.648438 460.925781 388.804688 453.332031 384.417969 C 452.683594 384.074219 451.992188 383.339844 451.253906 382.214844 C 450.511719 381.082031 450.144531 379.992188 450.144531 378.949219 C 450.144531 375.128906 450.785156 371.300781 452.066406 367.464844 C 453.347656 363.621094 454.980469 360.617188 456.972656 358.449219 C 460.191406 354.847656 465.976562 351.699219 474.332031 349.011719 C 482.683594 346.316406 492.089844 344.964844 502.550781 344.964844 C 508.800781 344.964844 513.628906 345.445312 517.035156 346.402344 C 520.441406 347.363281 522.144531 348.835938 522.144531 350.824219 C 522.144531 354.085938 521.695312 356.605469 520.800781 358.386719 C 519.914062 360.160156 518.960938 361.339844 517.941406 361.933594 C 516.917969 362.519531 515.128906 363.308594 512.566406 364.308594 C 509.835938 365.257812 507.460938 366.253906 505.441406 367.292969 C 503.417969 368.335938 501.691406 369.335938 500.253906 370.292969 C 498.824219 371.253906 497.941406 371.730469 497.597656 371.730469 C 497.160156 371.730469 496.941406 371.554688 496.941406 371.199219 C 496.941406 370.472656 497.710938 369.355469 499.253906 367.855469 C 500.792969 366.355469 502.695312 365.042969 504.957031 363.917969 C 507.339844 362.660156 508.535156 361.855469 508.535156 361.511719 C 508.535156 360.941406 507.210938 360.652344 504.566406 360.652344 C 496.535156 360.652344 489.113281 361.371094 482.300781 362.808594 C 475.488281 364.238281 470.117188 366.121094 466.191406 368.464844 C 462.261719 370.808594 460.300781 373.199219 460.300781 375.636719 C 460.300781 377.148438 461.113281 378.222656 462.738281 378.855469 C 464.363281 379.480469 467.949219 380.535156 473.503906 382.011719 C 479.066406 383.492188 484.039062 385.183594 488.425781 387.089844 C 494.714844 389.777344 499.378906 392.574219 502.410156 395.480469 C 505.449219 398.386719 506.972656 401.644531 506.972656 405.246094 C 506.972656 407.726562 506.371094 410.214844 505.175781 412.714844 C 503.988281 415.207031 502.242188 417.492188 499.941406 419.574219 C 497.636719 421.660156 494.992188 423.371094 492.003906 424.714844 C 489.441406 425.796875 486.214844 426.8125 482.332031 427.761719 C 478.445312 428.71875 474.238281 429.46875 469.707031 430.011719 C 465.175781 430.550781 460.847656 430.824219 456.722656 430.824219 C 449.128906 430.824219 443.019531 430.105469 438.394531 428.667969 C 433.769531 427.238281 431.457031 425.074219 431.457031 422.167969 C 431.457031 420.867188 432.238281 418.839844 433.800781 416.089844 C 435.363281 413.332031 437.207031 411.476562 439.332031 410.527344 C 441.207031 409.789062 443.007812 409.367188 444.738281 409.261719 C 446.476562 409.148438 447.347656 409.351562 447.347656 409.871094 C 447.347656 409.996094 447.277344 410.128906 447.144531 410.261719 C 447.019531 410.386719 446.867188 410.496094 446.691406 410.589844 C 446.523438 410.675781 446.351562 410.757812 446.175781 410.839844 C 445.308594 411.195312 444.601562 411.472656 444.050781 411.667969 C 443.507812 411.855469 443.074219 412.050781 442.753906 412.246094 C 442.429688 412.445312 442.269531 412.714844 442.269531 413.058594 C 442.269531 413.976562 446.757812 414.433594 455.738281 414.433594 C 463.550781 414.433594 469.949219 414.152344 474.941406 413.589844 C 479.929688 413.019531 484.335938 411.996094 488.160156 410.527344 C 491.980469 409.050781 495.449219 407.007812 498.566406 404.402344 Z M 498.566406 404.402344 " fill-opacity="1" fill-rule="nonzero"/><path fill="#ffffff" d="M 360.433594 399.234375 L 360.433594 403.71875 C 356.308594 407.585938 352.800781 410.699219 349.917969 413.0625 C 347.03125 415.429688 344.15625 417.558594 341.292969 419.453125 C 338.425781 421.335938 336.050781 422.679688 334.167969 423.484375 C 332.28125 424.285156 330.667969 424.6875 329.324219 424.6875 C 326.105469 424.6875 323.472656 423.492188 321.433594 421.109375 C 319.402344 418.726562 318.386719 415.640625 318.386719 411.859375 C 318.386719 407.527344 319.261719 403.234375 321.011719 398.984375 C 322.769531 394.726562 325.277344 390.328125 328.527344 385.796875 C 331.785156 381.257812 335.871094 376.167969 340.777344 370.53125 C 344.421875 366.367188 346.246094 364.023438 346.246094 363.5 C 346.246094 363.199219 346.136719 362.9375 345.917969 362.71875 C 345.699219 362.5 345.457031 362.390625 345.199219 362.390625 C 344.375 362.390625 341.839844 364.214844 337.589844 367.859375 C 333.339844 371.507812 327.878906 376.867188 321.214844 383.9375 C 314.558594 391.011719 307.363281 399.429688 299.636719 409.1875 C 299.199219 409.710938 297.816406 411.480469 295.496094 414.5 C 293.183594 417.523438 291.546875 419.484375 290.589844 420.390625 C 289.628906 421.296875 288.808594 421.75 288.121094 421.75 C 286.902344 421.75 285.84375 420.523438 284.949219 418.078125 C 284.0625 415.632812 283.621094 413.015625 283.621094 410.234375 C 283.621094 408.546875 284.171875 406.730469 285.277344 404.78125 C 286.390625 402.824219 288.800781 399.320312 292.511719 394.265625 C 296.21875 389.203125 299.285156 384.9375 301.714844 381.46875 C 304.152344 377.992188 306.824219 373.78125 309.730469 368.84375 C 311.769531 365.40625 313.277344 362.671875 314.246094 360.640625 C 315.222656 358.601562 315.714844 356.796875 315.714844 355.234375 C 315.714844 353.890625 315.324219 353.21875 314.542969 353.21875 C 312.894531 353.21875 309.792969 355.421875 305.230469 359.828125 C 300.675781 364.226562 295.046875 370.765625 288.339844 379.453125 C 281.640625 388.132812 274.644531 398.171875 267.355469 409.578125 C 264.96875 413.484375 263.277344 416.117188 262.277344 417.46875 C 261.277344 418.8125 260.167969 419.484375 258.949219 419.484375 C 257.425781 419.484375 256.003906 417.871094 254.683594 414.640625 C 253.359375 411.402344 252.699219 408.78125 252.699219 406.78125 C 252.699219 406.136719 252.957031 405.421875 253.480469 404.640625 C 259.207031 397.007812 263.917969 390.523438 267.605469 385.1875 C 271.292969 379.84375 274.566406 374.777344 277.433594 369.984375 C 280.296875 365.183594 282.378906 361.230469 283.683594 358.125 C 284.984375 355.023438 285.636719 352.585938 285.636719 350.8125 C 285.636719 348.9375 284.792969 348 283.105469 348 C 281.71875 348 279.355469 348.890625 276.011719 350.671875 C 272.667969 352.453125 268.441406 354.886719 263.339844 357.96875 C 258.246094 361.054688 254.15625 363.40625 251.074219 365.03125 C 247.988281 366.65625 245.695312 367.46875 244.183594 367.46875 C 242.746094 367.46875 242.027344 366.667969 242.027344 365.0625 C 242.027344 364.148438 242.335938 362.054688 242.949219 358.78125 C 243.554688 355.5 244.179688 353.1875 244.824219 351.84375 C 245.742188 350.117188 248.074219 347.820312 251.824219 344.953125 C 255.574219 342.089844 257.644531 340.65625 258.042969 340.65625 C 258.386719 340.65625 258.558594 340.808594 258.558594 341.109375 C 258.558594 341.277344 258.386719 341.539062 258.042969 341.890625 C 256.261719 343.320312 254.933594 344.492188 254.058594 345.40625 C 253.191406 346.3125 252.65625 347.308594 252.449219 348.390625 C 260.386719 343.621094 267.488281 339.992188 273.761719 337.5 C 280.03125 335 284.378906 333.75 286.808594 333.75 C 288.027344 333.75 289.175781 334.5625 290.261719 336.1875 C 291.34375 337.8125 292.265625 339.703125 293.027344 341.859375 C 293.785156 344.007812 294.167969 345.382812 294.167969 345.984375 C 294.167969 348.203125 293.597656 350.824219 292.464844 353.84375 C 291.339844 356.855469 289.8125 360.355469 287.886719 364.34375 C 285.957031 368.335938 283.5625 373.324219 280.699219 379.3125 C 282.949219 376.40625 285.09375 373.71875 287.136719 371.25 C 289.175781 368.773438 291.203125 366.359375 293.214844 364.015625 C 295.234375 361.671875 297.285156 359.308594 299.371094 356.921875 C 302.191406 353.671875 305.359375 350.5625 308.871094 347.59375 C 312.390625 344.617188 315.675781 342.183594 318.730469 340.296875 C 321.792969 338.402344 323.871094 337.453125 324.964844 337.453125 C 326.472656 337.453125 327.828125 338.292969 329.027344 339.96875 C 330.222656 341.636719 330.824219 343.429688 330.824219 345.34375 C 330.824219 346.59375 329.996094 349 328.339844 352.5625 C 326.691406 356.125 324.285156 360.683594 321.121094 366.234375 C 317.953125 371.789062 313.765625 378.949219 308.558594 387.71875 C 313.503906 382.46875 318.644531 377.070312 323.980469 371.515625 C 329.3125 365.953125 333.28125 361.890625 335.886719 359.328125 C 338.488281 356.765625 340.660156 354.8125 342.402344 353.46875 C 344.785156 351.648438 347.183594 349.683594 349.589844 347.578125 C 352.003906 345.476562 353.90625 343.820312 355.292969 342.609375 C 356.675781 341.390625 357.910156 340.460938 358.996094 339.8125 C 360.089844 339.15625 361.089844 338.828125 361.996094 338.828125 C 363.121094 338.828125 364.535156 340.132812 366.246094 342.734375 C 367.964844 345.339844 368.824219 347.011719 368.824219 347.75 C 368.824219 348.65625 368.3125 349.742188 367.292969 351 C 366.28125 352.261719 364.167969 354.605469 360.949219 358.03125 C 355.050781 364.367188 349.933594 370.757812 345.589844 377.203125 C 341.253906 383.640625 337.96875 389.523438 335.730469 394.84375 C 333.488281 400.15625 332.371094 404.355469 332.371094 407.4375 C 332.371094 409.34375 332.730469 410.734375 333.449219 411.609375 C 334.167969 412.476562 335.285156 412.90625 336.808594 412.90625 C 338.191406 412.90625 339.480469 412.648438 340.667969 412.125 C 341.863281 411.605469 343.1875 410.871094 344.636719 409.921875 C 346.09375 408.964844 347.472656 408.046875 348.777344 407.171875 C 350.597656 406.089844 352.390625 404.933594 354.152344 403.703125 C 355.910156 402.464844 357.277344 401.484375 358.246094 400.765625 C 359.222656 400.046875 359.953125 399.539062 360.433594 399.234375 Z M 360.433594 399.234375 " fill-opacity="1" fill-rule="nonzero"/><path fill="#ffffff" d="M 435.359375 399.234375 L 435.359375 402.6875 C 430.410156 406.855469 425.503906 410.839844 420.640625 414.640625 C 415.785156 418.433594 409.882812 422.671875 402.9375 427.359375 C 399.382812 432.210938 396.328125 436.191406 393.765625 439.296875 C 391.203125 442.398438 388.988281 444.972656 387.125 447.015625 C 385.257812 449.054688 384.304688 450.097656 384.265625 450.140625 C 383.648438 450.878906 382.625 451.613281 381.1875 452.34375 C 379.757812 453.082031 378.570312 453.453125 377.625 453.453125 C 376.28125 453.453125 375.160156 452.960938 374.265625 451.984375 C 373.378906 451.015625 372.9375 449.859375 372.9375 448.515625 C 372.9375 445.035156 374.757812 441.332031 378.40625 437.40625 C 382.050781 433.476562 387.382812 429.457031 394.40625 425.34375 C 397.882812 420.351562 401.207031 415.335938 404.375 410.28125 C 407.539062 405.21875 410.304688 400.605469 412.671875 396.4375 C 415.035156 392.273438 417.21875 388.171875 419.21875 384.140625 C 416.09375 386.734375 412.988281 389.242188 409.90625 391.65625 C 406.820312 394.0625 403.804688 396.367188 400.859375 398.5625 C 397.910156 400.75 396.085938 402.105469 395.390625 402.625 C 394.691406 403.148438 394.082031 403.601562 393.5625 403.984375 C 386.007812 410.578125 380.367188 413.875 376.640625 413.875 C 373.085938 413.875 370.09375 412.183594 367.65625 408.796875 C 365.226562 405.414062 364.015625 401.140625 364.015625 395.984375 C 364.015625 392.726562 364.535156 389.328125 365.578125 385.796875 C 366.617188 382.257812 368.210938 378.621094 370.359375 374.890625 C 372.503906 371.164062 375.070312 367.5625 378.0625 364.09375 C 381.0625 360.617188 384.363281 357.421875 387.96875 354.515625 C 393.519531 350.089844 399.742188 346.132812 406.640625 342.640625 C 413.546875 339.140625 419.972656 336.46875 425.921875 334.625 C 431.867188 332.78125 436.25 331.859375 439.0625 331.859375 C 440.71875 331.859375 442.03125 332.261719 443 333.0625 C 443.976562 333.867188 444.671875 334.953125 445.078125 336.328125 C 445.492188 337.695312 445.703125 339.136719 445.703125 340.65625 C 445.703125 342.042969 445.269531 343.429688 444.40625 344.8125 C 443.144531 346.679688 440.929688 348.640625 437.765625 350.703125 C 434.597656 352.765625 431.40625 354.589844 428.1875 356.171875 C 424.976562 357.757812 423.140625 358.546875 422.671875 358.546875 C 422.410156 358.546875 422.28125 358.464844 422.28125 358.296875 C 422.28125 357.902344 422.773438 357.273438 423.765625 356.40625 C 424.765625 355.53125 425.875 354.640625 427.09375 353.734375 C 429.78125 351.695312 431.363281 349.523438 431.84375 347.21875 C 427.632812 348.398438 423.445312 349.9375 419.28125 351.84375 C 415.113281 353.75 410.988281 356.03125 406.90625 358.6875 C 402.832031 361.335938 398.753906 364.351562 394.671875 367.734375 C 390.078125 371.589844 386.160156 375.617188 382.921875 379.8125 C 379.691406 384 377.238281 387.875 375.5625 391.4375 C 373.894531 394.992188 373.0625 397.71875 373.0625 399.625 C 373.0625 401.0625 373.515625 402.3125 374.421875 403.375 C 375.335938 404.4375 376.578125 404.96875 378.140625 404.96875 C 379.960938 404.96875 382.21875 404.167969 384.90625 402.5625 C 387.8125 400.824219 391.007812 398.601562 394.5 395.890625 C 398 393.171875 401.222656 390.601562 404.171875 388.171875 C 407.128906 385.746094 410.320312 383.074219 413.75 380.15625 C 416.914062 377.511719 419.375 375.375 421.125 373.75 C 422.882812 372.125 424.203125 370.703125 425.078125 369.484375 C 426.898438 366.976562 428.707031 365.527344 430.5 365.140625 C 432.300781 364.746094 433.84375 365.101562 435.125 366.203125 C 436.40625 367.308594 437.046875 368.664062 437.046875 370.265625 C 437.046875 370.789062 436.101562 372.820312 434.21875 376.359375 C 432.332031 379.890625 429.445312 385.011719 425.5625 391.71875 C 421.675781 398.429688 416.890625 406.335938 411.203125 415.4375 C 416.242188 412.75 424.296875 407.351562 435.359375 399.234375 Z M 435.359375 399.234375 " fill-opacity="1" fill-rule="nonzero"/><path fill="#ffffff" d="M 502.398438 401.1875 C 501.3125 399.1875 499.6875 397.386719 497.523438 395.78125 C 495.355469 394.179688 492.914062 392.890625 490.195312 391.921875 C 487.484375 390.945312 484.65625 390.214844 481.710938 389.734375 C 472.9375 388.433594 464.757812 385.589844 457.164062 381.203125 C 456.515625 380.859375 455.824219 380.125 455.085938 379 C 454.34375 377.867188 453.976562 376.777344 453.976562 375.734375 C 453.976562 371.914062 454.617188 368.085938 455.898438 364.25 C 457.179688 360.40625 458.8125 357.402344 460.804688 355.234375 C 464.023438 351.632812 469.808594 348.484375 478.164062 345.796875 C 486.515625 343.101562 495.921875 341.75 506.382812 341.75 C 512.632812 341.75 517.460938 342.230469 520.867188 343.1875 C 524.273438 344.148438 525.976562 345.621094 525.976562 347.609375 C 525.976562 350.871094 525.527344 353.390625 524.632812 355.171875 C 523.746094 356.945312 522.792969 358.125 521.773438 358.71875 C 520.75 359.304688 518.960938 360.09375 516.398438 361.09375 C 513.667969 362.042969 511.292969 363.039062 509.273438 364.078125 C 507.25 365.121094 505.523438 366.121094 504.085938 367.078125 C 502.65625 368.039062 501.773438 368.515625 501.429688 368.515625 C 500.992188 368.515625 500.773438 368.339844 500.773438 367.984375 C 500.773438 367.257812 501.542969 366.140625 503.085938 364.640625 C 504.625 363.140625 506.527344 361.828125 508.789062 360.703125 C 511.171875 359.445312 512.367188 358.640625 512.367188 358.296875 C 512.367188 357.726562 511.042969 357.4375 508.398438 357.4375 C 500.367188 357.4375 492.945312 358.15625 486.132812 359.59375 C 479.320312 361.023438 473.949219 362.90625 470.023438 365.25 C 466.09375 367.59375 464.132812 369.984375 464.132812 372.421875 C 464.132812 373.933594 464.945312 375.007812 466.570312 375.640625 C 468.195312 376.265625 471.78125 377.320312 477.335938 378.796875 C 482.898438 380.277344 487.871094 381.96875 492.257812 383.875 C 498.546875 386.5625 503.210938 389.359375 506.242188 392.265625 C 509.28125 395.171875 510.804688 398.429688 510.804688 402.03125 C 510.804688 404.511719 510.203125 407 509.007812 409.5 C 507.820312 411.992188 506.074219 414.277344 503.773438 416.359375 C 501.46875 418.445312 498.824219 420.15625 495.835938 421.5 C 493.273438 422.582031 490.046875 423.597656 486.164062 424.546875 C 482.277344 425.503906 478.070312 426.253906 473.539062 426.796875 C 469.007812 427.335938 464.679688 427.609375 460.554688 427.609375 C 452.960938 427.609375 446.851562 426.890625 442.226562 425.453125 C 437.601562 424.023438 435.289062 421.859375 435.289062 418.953125 C 435.289062 417.652344 436.070312 415.625 437.632812 412.875 C 439.195312 410.117188 441.039062 408.261719 443.164062 407.3125 C 445.039062 406.574219 446.839844 406.152344 448.570312 406.046875 C 450.308594 405.933594 451.179688 406.136719 451.179688 406.65625 C 451.179688 406.78125 451.109375 406.914062 450.976562 407.046875 C 450.851562 407.171875 450.699219 407.28125 450.523438 407.375 C 450.355469 407.460938 450.183594 407.542969 450.007812 407.625 C 449.140625 407.980469 448.433594 408.257812 447.882812 408.453125 C 447.339844 408.640625 446.90625 408.835938 446.585938 409.03125 C 446.261719 409.230469 446.101562 409.5 446.101562 409.84375 C 446.101562 410.761719 450.589844 411.21875 459.570312 411.21875 C 467.382812 411.21875 473.78125 410.9375 478.773438 410.375 C 483.761719 409.804688 488.167969 408.78125 491.992188 407.3125 C 495.8125 405.835938 499.28125 403.792969 502.398438 401.1875 Z M 502.398438 401.1875 " fill-opacity="1" fill-rule="nonzero"/></svg>