<svg xmlns="http://www.w3.org/2000/svg" xmlns:xlink="http://www.w3.org/1999/xlink" zoomAndPan="magnify" preserveAspectRatio="xMidYMid meet" version="1.0" viewBox="238.2 331.86 287.78 124.81"><defs><g/></defs><g fill="#000000" fill-opacity="1"><g transform="translate(244.056982, 423.213515)"><g><path d="M 112.546875 -20.765625 L 112.546875 -16.28125 C 108.421875 -12.414062 104.914062 -9.300781 102.03125 -6.9375 C 99.144531 -4.570312 96.269531 -2.441406 93.40625 -0.546875 C 90.539062 1.335938 88.164062 2.679688 86.28125 3.484375 C 84.394531 4.285156 82.78125 4.6875 81.4375 4.6875 C 78.21875 4.6875 75.585938 3.492188 73.546875 1.109375 C 71.515625 -1.273438 70.5 -4.359375 70.5 -8.140625 C 70.5 -12.472656 71.375 -16.765625 73.125 -21.015625 C 74.882812 -25.273438 77.390625 -29.671875 80.640625 -34.203125 C 83.898438 -38.742188 87.984375 -43.832031 92.890625 -49.46875 C 96.535156 -53.632812 98.359375 -55.976562 98.359375 -56.5 C 98.359375 -56.800781 98.25 -57.0625 98.03125 -57.28125 C 97.8125 -57.5 97.570312 -57.609375 97.3125 -57.609375 C 96.488281 -57.609375 93.953125 -55.785156 89.703125 -52.140625 C 85.453125 -48.492188 79.992188 -43.132812 73.328125 -36.0625 C 66.671875 -28.988281 59.476562 -20.570312 51.75 -10.8125 C 51.3125 -10.289062 49.929688 -8.519531 47.609375 -5.5 C 45.296875 -2.476562 43.660156 -0.515625 42.703125 0.390625 C 41.742188 1.296875 40.921875 1.75 40.234375 1.75 C 39.015625 1.75 37.957031 0.523438 37.0625 -1.921875 C 36.175781 -4.367188 35.734375 -6.984375 35.734375 -9.765625 C 35.734375 -11.453125 36.285156 -13.269531 37.390625 -15.21875 C 38.503906 -17.175781 40.914062 -20.679688 44.625 -25.734375 C 48.332031 -30.796875 51.398438 -35.0625 53.828125 -38.53125 C 56.265625 -42.007812 58.9375 -46.21875 61.84375 -51.15625 C 63.882812 -54.59375 65.390625 -57.328125 66.359375 -59.359375 C 67.335938 -61.398438 67.828125 -63.203125 67.828125 -64.765625 C 67.828125 -66.109375 67.4375 -66.78125 66.65625 -66.78125 C 65.007812 -66.78125 61.90625 -64.578125 57.34375 -60.171875 C 52.789062 -55.773438 47.160156 -49.234375 40.453125 -40.546875 C 33.753906 -31.867188 26.757812 -21.828125 19.46875 -10.421875 C 17.082031 -6.515625 15.390625 -3.882812 14.390625 -2.53125 C 13.390625 -1.1875 12.28125 -0.515625 11.0625 -0.515625 C 9.539062 -0.515625 8.117188 -2.128906 6.796875 -5.359375 C 5.472656 -8.597656 4.8125 -11.21875 4.8125 -13.21875 C 4.8125 -13.863281 5.070312 -14.578125 5.59375 -15.359375 C 11.320312 -22.992188 16.03125 -29.476562 19.71875 -34.8125 C 23.40625 -40.15625 26.679688 -45.222656 29.546875 -50.015625 C 32.410156 -54.816406 34.492188 -58.769531 35.796875 -61.875 C 37.097656 -64.976562 37.75 -67.414062 37.75 -69.1875 C 37.75 -71.0625 36.90625 -72 35.21875 -72 C 33.832031 -72 31.46875 -71.109375 28.125 -69.328125 C 24.78125 -67.546875 20.554688 -65.113281 15.453125 -62.03125 C 10.359375 -58.945312 6.269531 -56.59375 3.1875 -54.96875 C 0.101562 -53.34375 -2.191406 -52.53125 -3.703125 -52.53125 C -5.140625 -52.53125 -5.859375 -53.332031 -5.859375 -54.9375 C -5.859375 -55.851562 -5.550781 -57.945312 -4.9375 -61.21875 C -4.332031 -64.5 -3.707031 -66.8125 -3.0625 -68.15625 C -2.144531 -69.882812 0.1875 -72.179688 3.9375 -75.046875 C 7.6875 -77.910156 9.757812 -79.34375 10.15625 -79.34375 C 10.5 -79.34375 10.671875 -79.191406 10.671875 -78.890625 C 10.671875 -78.722656 10.5 -78.460938 10.15625 -78.109375 C 8.375 -76.679688 7.046875 -75.507812 6.171875 -74.59375 C 5.304688 -73.6875 4.769531 -72.691406 4.5625 -71.609375 C 12.5 -76.378906 19.601562 -80.007812 25.875 -82.5 C 32.144531 -85 36.492188 -86.25 38.921875 -86.25 C 40.140625 -86.25 41.289062 -85.4375 42.375 -83.8125 C 43.457031 -82.1875 44.378906 -80.296875 45.140625 -78.140625 C 45.898438 -75.992188 46.28125 -74.617188 46.28125 -74.015625 C 46.28125 -71.796875 45.710938 -69.175781 44.578125 -66.15625 C 43.453125 -63.144531 41.925781 -59.644531 40 -55.65625 C 38.070312 -51.664062 35.675781 -46.675781 32.8125 -40.6875 C 35.0625 -43.59375 37.207031 -46.28125 39.25 -48.75 C 41.289062 -51.226562 43.316406 -53.640625 45.328125 -55.984375 C 47.347656 -58.328125 49.398438 -60.691406 51.484375 -63.078125 C 54.304688 -66.328125 57.472656 -69.4375 60.984375 -72.40625 C 64.503906 -75.382812 67.789062 -77.816406 70.84375 -79.703125 C 73.90625 -81.597656 75.984375 -82.546875 77.078125 -82.546875 C 78.585938 -82.546875 79.941406 -81.707031 81.140625 -80.03125 C 82.335938 -78.363281 82.9375 -76.570312 82.9375 -74.65625 C 82.9375 -73.40625 82.109375 -71 80.453125 -67.4375 C 78.804688 -63.875 76.398438 -59.316406 73.234375 -53.765625 C 70.066406 -48.210938 65.878906 -41.050781 60.671875 -32.28125 C 65.617188 -37.53125 70.757812 -42.929688 76.09375 -48.484375 C 81.425781 -54.046875 85.394531 -58.109375 88 -60.671875 C 90.601562 -63.234375 92.773438 -65.1875 94.515625 -66.53125 C 96.898438 -68.351562 99.296875 -70.316406 101.703125 -72.421875 C 104.117188 -74.523438 106.019531 -76.179688 107.40625 -77.390625 C 108.789062 -78.609375 110.023438 -79.539062 111.109375 -80.1875 C 112.203125 -80.84375 113.203125 -81.171875 114.109375 -81.171875 C 115.234375 -81.171875 116.648438 -79.867188 118.359375 -77.265625 C 120.078125 -74.660156 120.9375 -72.988281 120.9375 -72.25 C 120.9375 -71.34375 120.425781 -70.257812 119.40625 -69 C 118.394531 -67.738281 116.28125 -65.394531 113.0625 -61.96875 C 107.164062 -55.632812 102.046875 -49.242188 97.703125 -42.796875 C 93.367188 -36.359375 90.082031 -30.476562 87.84375 -25.15625 C 85.601562 -19.84375 84.484375 -15.644531 84.484375 -12.5625 C 84.484375 -10.65625 84.84375 -9.265625 85.5625 -8.390625 C 86.28125 -7.523438 87.398438 -7.09375 88.921875 -7.09375 C 90.304688 -7.09375 91.59375 -7.351562 92.78125 -7.875 C 93.976562 -8.394531 95.300781 -9.128906 96.75 -10.078125 C 98.207031 -11.035156 99.585938 -11.953125 100.890625 -12.828125 C 102.710938 -13.910156 104.503906 -15.066406 106.265625 -16.296875 C 108.023438 -17.535156 109.390625 -18.515625 110.359375 -19.234375 C 111.335938 -19.953125 112.066406 -20.460938 112.546875 -20.765625 Z M 112.546875 -20.765625 "/></g></g><g transform="translate(355.10733, 423.213515)"><g><path d="M 76.421875 -20.765625 L 76.421875 -17.3125 C 71.472656 -13.144531 66.566406 -9.160156 61.703125 -5.359375 C 56.847656 -1.566406 50.945312 2.671875 44 7.359375 C 40.445312 12.210938 37.390625 16.191406 34.828125 19.296875 C 32.265625 22.398438 30.050781 24.972656 28.1875 27.015625 C 26.320312 29.054688 25.367188 30.097656 25.328125 30.140625 C 24.710938 30.878906 23.6875 31.613281 22.25 32.34375 C 20.820312 33.082031 19.632812 33.453125 18.6875 33.453125 C 17.34375 33.453125 16.222656 32.960938 15.328125 31.984375 C 14.441406 31.015625 14 29.859375 14 28.515625 C 14 25.035156 15.820312 21.332031 19.46875 17.40625 C 23.113281 13.476562 28.445312 9.457031 35.46875 5.34375 C 38.945312 0.351562 42.269531 -4.664062 45.4375 -9.71875 C 48.601562 -14.78125 51.367188 -19.394531 53.734375 -23.5625 C 56.097656 -27.726562 58.28125 -31.828125 60.28125 -35.859375 C 57.15625 -33.265625 54.050781 -30.757812 50.96875 -28.34375 C 47.882812 -25.9375 44.867188 -23.632812 41.921875 -21.4375 C 38.972656 -19.25 37.148438 -17.894531 36.453125 -17.375 C 35.753906 -16.851562 35.144531 -16.398438 34.625 -16.015625 C 27.070312 -9.421875 21.429688 -6.125 17.703125 -6.125 C 14.148438 -6.125 11.15625 -7.816406 8.71875 -11.203125 C 6.289062 -14.585938 5.078125 -18.859375 5.078125 -24.015625 C 5.078125 -27.273438 5.597656 -30.671875 6.640625 -34.203125 C 7.679688 -37.742188 9.273438 -41.378906 11.421875 -45.109375 C 13.566406 -48.835938 16.132812 -52.4375 19.125 -55.90625 C 22.125 -59.382812 25.425781 -62.578125 29.03125 -65.484375 C 34.582031 -69.910156 40.804688 -73.867188 47.703125 -77.359375 C 54.609375 -80.859375 61.035156 -83.53125 66.984375 -85.375 C 72.929688 -87.21875 77.3125 -88.140625 80.125 -88.140625 C 81.78125 -88.140625 83.09375 -87.738281 84.0625 -86.9375 C 85.039062 -86.132812 85.734375 -85.046875 86.140625 -83.671875 C 86.554688 -82.304688 86.765625 -80.863281 86.765625 -79.34375 C 86.765625 -77.957031 86.332031 -76.570312 85.46875 -75.1875 C 84.207031 -73.320312 81.992188 -71.359375 78.828125 -69.296875 C 75.660156 -67.234375 72.46875 -65.410156 69.25 -63.828125 C 66.039062 -62.242188 64.203125 -61.453125 63.734375 -61.453125 C 63.472656 -61.453125 63.34375 -61.535156 63.34375 -61.703125 C 63.34375 -62.097656 63.835938 -62.726562 64.828125 -63.59375 C 65.828125 -64.46875 66.9375 -65.359375 68.15625 -66.265625 C 70.84375 -68.304688 72.425781 -70.476562 72.90625 -72.78125 C 68.695312 -71.601562 64.507812 -70.0625 60.34375 -68.15625 C 56.175781 -66.25 52.050781 -63.96875 47.96875 -61.3125 C 43.894531 -58.664062 39.816406 -55.648438 35.734375 -52.265625 C 31.140625 -48.410156 27.222656 -44.382812 23.984375 -40.1875 C 20.753906 -36 18.300781 -32.125 16.625 -28.5625 C 14.957031 -25.007812 14.125 -22.28125 14.125 -20.375 C 14.125 -18.9375 14.578125 -17.6875 15.484375 -16.625 C 16.398438 -15.5625 17.640625 -15.03125 19.203125 -15.03125 C 21.023438 -15.03125 23.28125 -15.832031 25.96875 -17.4375 C 28.875 -19.175781 32.070312 -21.398438 35.5625 -24.109375 C 39.0625 -26.828125 42.285156 -29.398438 45.234375 -31.828125 C 48.191406 -34.253906 51.382812 -36.925781 54.8125 -39.84375 C 57.976562 -42.488281 60.4375 -44.625 62.1875 -46.25 C 63.945312 -47.875 65.265625 -49.296875 66.140625 -50.515625 C 67.960938 -53.023438 69.769531 -54.472656 71.5625 -54.859375 C 73.363281 -55.253906 74.90625 -54.898438 76.1875 -53.796875 C 77.46875 -52.691406 78.109375 -51.335938 78.109375 -49.734375 C 78.109375 -49.210938 77.164062 -47.179688 75.28125 -43.640625 C 73.394531 -40.109375 70.507812 -34.988281 66.625 -28.28125 C 62.738281 -21.570312 57.953125 -13.664062 52.265625 -4.5625 C 57.304688 -7.25 65.359375 -12.648438 76.421875 -20.765625 Z M 76.421875 -20.765625 "/></g></g><g transform="translate(430.160702, 423.213515)"><g><path d="M 68.40625 -18.8125 C 67.320312 -20.8125 65.695312 -22.613281 63.53125 -24.21875 C 61.363281 -25.820312 58.921875 -27.109375 56.203125 -28.078125 C 53.492188 -29.054688 50.664062 -29.785156 47.71875 -30.265625 C 38.945312 -31.566406 30.765625 -34.410156 23.171875 -38.796875 C 22.523438 -39.140625 21.832031 -39.875 21.09375 -41 C 20.351562 -42.132812 19.984375 -43.222656 19.984375 -44.265625 C 19.984375 -48.085938 20.625 -51.914062 21.90625 -55.75 C 23.1875 -59.59375 24.820312 -62.597656 26.8125 -64.765625 C 30.03125 -68.367188 35.816406 -71.515625 44.171875 -74.203125 C 52.523438 -76.898438 61.929688 -78.25 72.390625 -78.25 C 78.640625 -78.25 83.46875 -77.769531 86.875 -76.8125 C 90.28125 -75.851562 91.984375 -74.378906 91.984375 -72.390625 C 91.984375 -69.128906 91.535156 -66.609375 90.640625 -64.828125 C 89.753906 -63.054688 88.800781 -61.875 87.78125 -61.28125 C 86.757812 -60.695312 84.96875 -59.90625 82.40625 -58.90625 C 79.675781 -57.957031 77.300781 -56.960938 75.28125 -55.921875 C 73.257812 -54.878906 71.53125 -53.878906 70.09375 -52.921875 C 68.664062 -51.960938 67.78125 -51.484375 67.4375 -51.484375 C 67 -51.484375 66.78125 -51.660156 66.78125 -52.015625 C 66.78125 -52.742188 67.550781 -53.859375 69.09375 -55.359375 C 70.632812 -56.859375 72.535156 -58.171875 74.796875 -59.296875 C 77.179688 -60.554688 78.375 -61.359375 78.375 -61.703125 C 78.375 -62.273438 77.050781 -62.5625 74.40625 -62.5625 C 66.375 -62.5625 58.953125 -61.84375 52.140625 -60.40625 C 45.328125 -58.976562 39.957031 -57.09375 36.03125 -54.75 C 32.101562 -52.40625 30.140625 -50.015625 30.140625 -47.578125 C 30.140625 -46.066406 30.953125 -44.992188 32.578125 -44.359375 C 34.203125 -43.734375 37.789062 -42.679688 43.34375 -41.203125 C 48.90625 -39.722656 53.878906 -38.03125 58.265625 -36.125 C 64.554688 -33.4375 69.21875 -30.640625 72.25 -27.734375 C 75.289062 -24.828125 76.8125 -21.570312 76.8125 -17.96875 C 76.8125 -15.488281 76.210938 -13 75.015625 -10.5 C 73.828125 -8.007812 72.082031 -5.722656 69.78125 -3.640625 C 67.476562 -1.554688 64.832031 0.15625 61.84375 1.5 C 59.28125 2.582031 56.054688 3.597656 52.171875 4.546875 C 48.285156 5.503906 44.078125 6.253906 39.546875 6.796875 C 35.015625 7.335938 30.6875 7.609375 26.5625 7.609375 C 18.96875 7.609375 12.859375 6.890625 8.234375 5.453125 C 3.609375 4.023438 1.296875 1.859375 1.296875 -1.046875 C 1.296875 -2.347656 2.078125 -4.375 3.640625 -7.125 C 5.203125 -9.882812 7.046875 -11.738281 9.171875 -12.6875 C 11.046875 -13.425781 12.847656 -13.847656 14.578125 -13.953125 C 16.316406 -14.066406 17.1875 -13.863281 17.1875 -13.34375 C 17.1875 -13.21875 17.117188 -13.085938 16.984375 -12.953125 C 16.859375 -12.828125 16.707031 -12.71875 16.53125 -12.625 C 16.363281 -12.539062 16.191406 -12.457031 16.015625 -12.375 C 15.148438 -12.019531 14.441406 -11.742188 13.890625 -11.546875 C 13.347656 -11.359375 12.914062 -11.164062 12.59375 -10.96875 C 12.269531 -10.769531 12.109375 -10.5 12.109375 -10.15625 C 12.109375 -9.238281 16.597656 -8.78125 25.578125 -8.78125 C 33.390625 -8.78125 39.789062 -9.0625 44.78125 -9.625 C 49.769531 -10.195312 54.175781 -11.21875 58 -12.6875 C 61.820312 -14.164062 65.289062 -16.207031 68.40625 -18.8125 Z M 68.40625 -18.8125 "/></g></g></g><g fill="#000000" fill-opacity="1"><g transform="translate(247.886713, 419.999999)"><g><path d="M 112.546875 -20.765625 L 112.546875 -16.28125 C 108.421875 -12.414062 104.914062 -9.300781 102.03125 -6.9375 C 99.144531 -4.570312 96.269531 -2.441406 93.40625 -0.546875 C 90.539062 1.335938 88.164062 2.679688 86.28125 3.484375 C 84.394531 4.285156 82.78125 4.6875 81.4375 4.6875 C 78.21875 4.6875 75.585938 3.492188 73.546875 1.109375 C 71.515625 -1.273438 70.5 -4.359375 70.5 -8.140625 C 70.5 -12.472656 71.375 -16.765625 73.125 -21.015625 C 74.882812 -25.273438 77.390625 -29.671875 80.640625 -34.203125 C 83.898438 -38.742188 87.984375 -43.832031 92.890625 -49.46875 C 96.535156 -53.632812 98.359375 -55.976562 98.359375 -56.5 C 98.359375 -56.800781 98.25 -57.0625 98.03125 -57.28125 C 97.8125 -57.5 97.570312 -57.609375 97.3125 -57.609375 C 96.488281 -57.609375 93.953125 -55.785156 89.703125 -52.140625 C 85.453125 -48.492188 79.992188 -43.132812 73.328125 -36.0625 C 66.671875 -28.988281 59.476562 -20.570312 51.75 -10.8125 C 51.3125 -10.289062 49.929688 -8.519531 47.609375 -5.5 C 45.296875 -2.476562 43.660156 -0.515625 42.703125 0.390625 C 41.742188 1.296875 40.921875 1.75 40.234375 1.75 C 39.015625 1.75 37.957031 0.523438 37.0625 -1.921875 C 36.175781 -4.367188 35.734375 -6.984375 35.734375 -9.765625 C 35.734375 -11.453125 36.285156 -13.269531 37.390625 -15.21875 C 38.503906 -17.175781 40.914062 -20.679688 44.625 -25.734375 C 48.332031 -30.796875 51.398438 -35.0625 53.828125 -38.53125 C 56.265625 -42.007812 58.9375 -46.21875 61.84375 -51.15625 C 63.882812 -54.59375 65.390625 -57.328125 66.359375 -59.359375 C 67.335938 -61.398438 67.828125 -63.203125 67.828125 -64.765625 C 67.828125 -66.109375 67.4375 -66.78125 66.65625 -66.78125 C 65.007812 -66.78125 61.90625 -64.578125 57.34375 -60.171875 C 52.789062 -55.773438 47.160156 -49.234375 40.453125 -40.546875 C 33.753906 -31.867188 26.757812 -21.828125 19.46875 -10.421875 C 17.082031 -6.515625 15.390625 -3.882812 14.390625 -2.53125 C 13.390625 -1.1875 12.28125 -0.515625 11.0625 -0.515625 C 9.539062 -0.515625 8.117188 -2.128906 6.796875 -5.359375 C 5.472656 -8.597656 4.8125 -11.21875 4.8125 -13.21875 C 4.8125 -13.863281 5.070312 -14.578125 5.59375 -15.359375 C 11.320312 -22.992188 16.03125 -29.476562 19.71875 -34.8125 C 23.40625 -40.15625 26.679688 -45.222656 29.546875 -50.015625 C 32.410156 -54.816406 34.492188 -58.769531 35.796875 -61.875 C 37.097656 -64.976562 37.75 -67.414062 37.75 -69.1875 C 37.75 -71.0625 36.90625 -72 35.21875 -72 C 33.832031 -72 31.46875 -71.109375 28.125 -69.328125 C 24.78125 -67.546875 20.554688 -65.113281 15.453125 -62.03125 C 10.359375 -58.945312 6.269531 -56.59375 3.1875 -54.96875 C 0.101562 -53.34375 -2.191406 -52.53125 -3.703125 -52.53125 C -5.140625 -52.53125 -5.859375 -53.332031 -5.859375 -54.9375 C -5.859375 -55.851562 -5.550781 -57.945312 -4.9375 -61.21875 C -4.332031 -64.5 -3.707031 -66.8125 -3.0625 -68.15625 C -2.144531 -69.882812 0.1875 -72.179688 3.9375 -75.046875 C 7.6875 -77.910156 9.757812 -79.34375 10.15625 -79.34375 C 10.5 -79.34375 10.671875 -79.191406 10.671875 -78.890625 C 10.671875 -78.722656 10.5 -78.460938 10.15625 -78.109375 C 8.375 -76.679688 7.046875 -75.507812 6.171875 -74.59375 C 5.304688 -73.6875 4.769531 -72.691406 4.5625 -71.609375 C 12.5 -76.378906 19.601562 -80.007812 25.875 -82.5 C 32.144531 -85 36.492188 -86.25 38.921875 -86.25 C 40.140625 -86.25 41.289062 -85.4375 42.375 -83.8125 C 43.457031 -82.1875 44.378906 -80.296875 45.140625 -78.140625 C 45.898438 -75.992188 46.28125 -74.617188 46.28125 -74.015625 C 46.28125 -71.796875 45.710938 -69.175781 44.578125 -66.15625 C 43.453125 -63.144531 41.925781 -59.644531 40 -55.65625 C 38.070312 -51.664062 35.675781 -46.675781 32.8125 -40.6875 C 35.0625 -43.59375 37.207031 -46.28125 39.25 -48.75 C 41.289062 -51.226562 43.316406 -53.640625 45.328125 -55.984375 C 47.347656 -58.328125 49.398438 -60.691406 51.484375 -63.078125 C 54.304688 -66.328125 57.472656 -69.4375 60.984375 -72.40625 C 64.503906 -75.382812 67.789062 -77.816406 70.84375 -79.703125 C 73.90625 -81.597656 75.984375 -82.546875 77.078125 -82.546875 C 78.585938 -82.546875 79.941406 -81.707031 81.140625 -80.03125 C 82.335938 -78.363281 82.9375 -76.570312 82.9375 -74.65625 C 82.9375 -73.40625 82.109375 -71 80.453125 -67.4375 C 78.804688 -63.875 76.398438 -59.316406 73.234375 -53.765625 C 70.066406 -48.210938 65.878906 -41.050781 60.671875 -32.28125 C 65.617188 -37.53125 70.757812 -42.929688 76.09375 -48.484375 C 81.425781 -54.046875 85.394531 -58.109375 88 -60.671875 C 90.601562 -63.234375 92.773438 -65.1875 94.515625 -66.53125 C 96.898438 -68.351562 99.296875 -70.316406 101.703125 -72.421875 C 104.117188 -74.523438 106.019531 -76.179688 107.40625 -77.390625 C 108.789062 -78.609375 110.023438 -79.539062 111.109375 -80.1875 C 112.203125 -80.84375 113.203125 -81.171875 114.109375 -81.171875 C 115.234375 -81.171875 116.648438 -79.867188 118.359375 -77.265625 C 120.078125 -74.660156 120.9375 -72.988281 120.9375 -72.25 C 120.9375 -71.34375 120.425781 -70.257812 119.40625 -69 C 118.394531 -67.738281 116.28125 -65.394531 113.0625 -61.96875 C 107.164062 -55.632812 102.046875 -49.242188 97.703125 -42.796875 C 93.367188 -36.359375 90.082031 -30.476562 87.84375 -25.15625 C 85.601562 -19.84375 84.484375 -15.644531 84.484375 -12.5625 C 84.484375 -10.65625 84.84375 -9.265625 85.5625 -8.390625 C 86.28125 -7.523438 87.398438 -7.09375 88.921875 -7.09375 C 90.304688 -7.09375 91.59375 -7.351562 92.78125 -7.875 C 93.976562 -8.394531 95.300781 -9.128906 96.75 -10.078125 C 98.207031 -11.035156 99.585938 -11.953125 100.890625 -12.828125 C 102.710938 -13.910156 104.503906 -15.066406 106.265625 -16.296875 C 108.023438 -17.535156 109.390625 -18.515625 110.359375 -19.234375 C 111.335938 -19.953125 112.066406 -20.460938 112.546875 -20.765625 Z M 112.546875 -20.765625 "/></g></g><g transform="translate(358.937061, 419.999999)"><g><path d="M 76.421875 -20.765625 L 76.421875 -17.3125 C 71.472656 -13.144531 66.566406 -9.160156 61.703125 -5.359375 C 56.847656 -1.566406 50.945312 2.671875 44 7.359375 C 40.445312 12.210938 37.390625 16.191406 34.828125 19.296875 C 32.265625 22.398438 30.050781 24.972656 28.1875 27.015625 C 26.320312 29.054688 25.367188 30.097656 25.328125 30.140625 C 24.710938 30.878906 23.6875 31.613281 22.25 32.34375 C 20.820312 33.082031 19.632812 33.453125 18.6875 33.453125 C 17.34375 33.453125 16.222656 32.960938 15.328125 31.984375 C 14.441406 31.015625 14 29.859375 14 28.515625 C 14 25.035156 15.820312 21.332031 19.46875 17.40625 C 23.113281 13.476562 28.445312 9.457031 35.46875 5.34375 C 38.945312 0.351562 42.269531 -4.664062 45.4375 -9.71875 C 48.601562 -14.78125 51.367188 -19.394531 53.734375 -23.5625 C 56.097656 -27.726562 58.28125 -31.828125 60.28125 -35.859375 C 57.15625 -33.265625 54.050781 -30.757812 50.96875 -28.34375 C 47.882812 -25.9375 44.867188 -23.632812 41.921875 -21.4375 C 38.972656 -19.25 37.148438 -17.894531 36.453125 -17.375 C 35.753906 -16.851562 35.144531 -16.398438 34.625 -16.015625 C 27.070312 -9.421875 21.429688 -6.125 17.703125 -6.125 C 14.148438 -6.125 11.15625 -7.816406 8.71875 -11.203125 C 6.289062 -14.585938 5.078125 -18.859375 5.078125 -24.015625 C 5.078125 -27.273438 5.597656 -30.671875 6.640625 -34.203125 C 7.679688 -37.742188 9.273438 -41.378906 11.421875 -45.109375 C 13.566406 -48.835938 16.132812 -52.4375 19.125 -55.90625 C 22.125 -59.382812 25.425781 -62.578125 29.03125 -65.484375 C 34.582031 -69.910156 40.804688 -73.867188 47.703125 -77.359375 C 54.609375 -80.859375 61.035156 -83.53125 66.984375 -85.375 C 72.929688 -87.21875 77.3125 -88.140625 80.125 -88.140625 C 81.78125 -88.140625 83.09375 -87.738281 84.0625 -86.9375 C 85.039062 -86.132812 85.734375 -85.046875 86.140625 -83.671875 C 86.554688 -82.304688 86.765625 -80.863281 86.765625 -79.34375 C 86.765625 -77.957031 86.332031 -76.570312 85.46875 -75.1875 C 84.207031 -73.320312 81.992188 -71.359375 78.828125 -69.296875 C 75.660156 -67.234375 72.46875 -65.410156 69.25 -63.828125 C 66.039062 -62.242188 64.203125 -61.453125 63.734375 -61.453125 C 63.472656 -61.453125 63.34375 -61.535156 63.34375 -61.703125 C 63.34375 -62.097656 63.835938 -62.726562 64.828125 -63.59375 C 65.828125 -64.46875 66.9375 -65.359375 68.15625 -66.265625 C 70.84375 -68.304688 72.425781 -70.476562 72.90625 -72.78125 C 68.695312 -71.601562 64.507812 -70.0625 60.34375 -68.15625 C 56.175781 -66.25 52.050781 -63.96875 47.96875 -61.3125 C 43.894531 -58.664062 39.816406 -55.648438 35.734375 -52.265625 C 31.140625 -48.410156 27.222656 -44.382812 23.984375 -40.1875 C 20.753906 -36 18.300781 -32.125 16.625 -28.5625 C 14.957031 -25.007812 14.125 -22.28125 14.125 -20.375 C 14.125 -18.9375 14.578125 -17.6875 15.484375 -16.625 C 16.398438 -15.5625 17.640625 -15.03125 19.203125 -15.03125 C 21.023438 -15.03125 23.28125 -15.832031 25.96875 -17.4375 C 28.875 -19.175781 32.070312 -21.398438 35.5625 -24.109375 C 39.0625 -26.828125 42.285156 -29.398438 45.234375 -31.828125 C 48.191406 -34.253906 51.382812 -36.925781 54.8125 -39.84375 C 57.976562 -42.488281 60.4375 -44.625 62.1875 -46.25 C 63.945312 -47.875 65.265625 -49.296875 66.140625 -50.515625 C 67.960938 -53.023438 69.769531 -54.472656 71.5625 -54.859375 C 73.363281 -55.253906 74.90625 -54.898438 76.1875 -53.796875 C 77.46875 -52.691406 78.109375 -51.335938 78.109375 -49.734375 C 78.109375 -49.210938 77.164062 -47.179688 75.28125 -43.640625 C 73.394531 -40.109375 70.507812 -34.988281 66.625 -28.28125 C 62.738281 -21.570312 57.953125 -13.664062 52.265625 -4.5625 C 57.304688 -7.25 65.359375 -12.648438 76.421875 -20.765625 Z M 76.421875 -20.765625 "/></g></g><g transform="translate(433.990433, 419.999999)"><g><path d="M 68.40625 -18.8125 C 67.320312 -20.8125 65.695312 -22.613281 63.53125 -24.21875 C 61.363281 -25.820312 58.921875 -27.109375 56.203125 -28.078125 C 53.492188 -29.054688 50.664062 -29.785156 47.71875 -30.265625 C 38.945312 -31.566406 30.765625 -34.410156 23.171875 -38.796875 C 22.523438 -39.140625 21.832031 -39.875 21.09375 -41 C 20.351562 -42.132812 19.984375 -43.222656 19.984375 -44.265625 C 19.984375 -48.085938 20.625 -51.914062 21.90625 -55.75 C 23.1875 -59.59375 24.820312 -62.597656 26.8125 -64.765625 C 30.03125 -68.367188 35.816406 -71.515625 44.171875 -74.203125 C 52.523438 -76.898438 61.929688 -78.25 72.390625 -78.25 C 78.640625 -78.25 83.46875 -77.769531 86.875 -76.8125 C 90.28125 -75.851562 91.984375 -74.378906 91.984375 -72.390625 C 91.984375 -69.128906 91.535156 -66.609375 90.640625 -64.828125 C 89.753906 -63.054688 88.800781 -61.875 87.78125 -61.28125 C 86.757812 -60.695312 84.96875 -59.90625 82.40625 -58.90625 C 79.675781 -57.957031 77.300781 -56.960938 75.28125 -55.921875 C 73.257812 -54.878906 71.53125 -53.878906 70.09375 -52.921875 C 68.664062 -51.960938 67.78125 -51.484375 67.4375 -51.484375 C 67 -51.484375 66.78125 -51.660156 66.78125 -52.015625 C 66.78125 -52.742188 67.550781 -53.859375 69.09375 -55.359375 C 70.632812 -56.859375 72.535156 -58.171875 74.796875 -59.296875 C 77.179688 -60.554688 78.375 -61.359375 78.375 -61.703125 C 78.375 -62.273438 77.050781 -62.5625 74.40625 -62.5625 C 66.375 -62.5625 58.953125 -61.84375 52.140625 -60.40625 C 45.328125 -58.976562 39.957031 -57.09375 36.03125 -54.75 C 32.101562 -52.40625 30.140625 -50.015625 30.140625 -47.578125 C 30.140625 -46.066406 30.953125 -44.992188 32.578125 -44.359375 C 34.203125 -43.734375 37.789062 -42.679688 43.34375 -41.203125 C 48.90625 -39.722656 53.878906 -38.03125 58.265625 -36.125 C 64.554688 -33.4375 69.21875 -30.640625 72.25 -27.734375 C 75.289062 -24.828125 76.8125 -21.570312 76.8125 -17.96875 C 76.8125 -15.488281 76.210938 -13 75.015625 -10.5 C 73.828125 -8.007812 72.082031 -5.722656 69.78125 -3.640625 C 67.476562 -1.554688 64.832031 0.15625 61.84375 1.5 C 59.28125 2.582031 56.054688 3.597656 52.171875 4.546875 C 48.285156 5.503906 44.078125 6.253906 39.546875 6.796875 C 35.015625 7.335938 30.6875 7.609375 26.5625 7.609375 C 18.96875 7.609375 12.859375 6.890625 8.234375 5.453125 C 3.609375 4.023438 1.296875 1.859375 1.296875 -1.046875 C 1.296875 -2.347656 2.078125 -4.375 3.640625 -7.125 C 5.203125 -9.882812 7.046875 -11.738281 9.171875 -12.6875 C 11.046875 -13.425781 12.847656 -13.847656 14.578125 -13.953125 C 16.316406 -14.066406 17.1875 -13.863281 17.1875 -13.34375 C 17.1875 -13.21875 17.117188 -13.085938 16.984375 -12.953125 C 16.859375 -12.828125 16.707031 -12.71875 16.53125 -12.625 C 16.363281 -12.539062 16.191406 -12.457031 16.015625 -12.375 C 15.148438 -12.019531 14.441406 -11.742188 13.890625 -11.546875 C 13.347656 -11.359375 12.914062 -11.164062 12.59375 -10.96875 C 12.269531 -10.769531 12.109375 -10.5 12.109375 -10.15625 C 12.109375 -9.238281 16.597656 -8.78125 25.578125 -8.78125 C 33.390625 -8.78125 39.789062 -9.0625 44.78125 -9.625 C 49.769531 -10.195312 54.175781 -11.21875 58 -12.6875 C 61.820312 -14.164062 65.289062 -16.207031 68.40625 -18.8125 Z M 68.40625 -18.8125 "/></g></g></g></svg>